<?xml version="1.0" encoding="iso-8859-1"?>
<!-- Generator: Adobe Illustrator 22.0.1, SVG Export Plug-In . SVG Version: 6.00 Build 0)  -->
<svg version="1.1" id="Layer_1" xmlns="http://www.w3.org/2000/svg" xmlns:xlink="http://www.w3.org/1999/xlink" x="0px" y="0px"
	 viewBox="0 0 512 512" style="enable-background:new 0 0 512 512;" xml:space="preserve">
<title>WordFlex</title>
<path style="fill:#EEEEEE;" d="M481.357,70.658C445.336,60.206,251.84,2.568,251.84,2.568s-35.513-11.176-76.912,11.9
	C133.631,37.544,33.89,89.801,33.89,89.801S1.725,103.875,0,131.814v246.282c0,0,0.101,37.77,38.557,52.05
	c38.456,14.28,216.631,75.437,216.631,75.437s27.396,21.006,80.463-12.211s152.403-96.133,152.403-96.133S512,376.233,512,348.294
	c0-27.94,0-242.764,0-242.764S517.276,81.213,481.357,70.658z M246.884,195.441c-9.33-3.413-24.238-8.481-41.884-14.376
	l1.42,182.959l-73.017-100.736L83,310.346l0.608-168.79c-24.238-7.757-41.174-13.135-41.174-13.135s-33.162-8.274,1.724-26.994
	L196.583,25.41c0,0,19.978-13.238,61.051-1.034s199.784,58.332,199.784,58.332s32.452,9.308,3.347,28.752
	c-38.943,26.063-137.212,81.085-137.212,81.085S289.68,211.161,246.884,195.441z M494,146.971c0,0,0,172.072,0,203.198
	c0,27.817-25.045,39.916-25.045,39.916s-111.029,71.042-141.55,87.691C296.986,494.424,298,458.955,298,458.955
	s1.115-166.488,1.115-198.648s26.16-43.328,26.16-43.328l144.795-88.931C497.245,111.399,494,146.971,494,146.971z"/>
</svg>
