<svg id="Layer_1" data-name="Layer 1" xmlns="http://www.w3.org/2000/svg" viewBox="0 0 512.27 512.27"><defs><style>.cls-1{fill:#6c757d;}</style></defs><title>main-logo-secondary</title><path class="cls-1" d="M481.36,70.66c-36-10.45-229.52-68.09-229.52-68.09s-35.51-11.18-76.91,11.9-141,75.33-141,75.33S1.72,103.87,0,131.81V378.1s.1,37.77,38.56,52,216.63,75.43,216.63,75.43,27.39,21,80.46-12.21,152.4-96.13,152.4-96.13,23.95-21,23.95-48.95V105.53S517.28,81.21,481.36,70.66ZM246.88,195.44C237.55,192,222.65,187,205,181.06l1.42,183-73-100.73L83,310.35l.61-168.79c-24.24-7.76-41.18-13.14-41.18-13.14s-33.16-8.27,1.73-27l152.42-76s20-13.24,61-1S457.42,82.71,457.42,82.71s32.45,9.31,3.34,28.75c-38.94,26.06-137.21,81.08-137.21,81.08S289.68,211.16,246.88,195.44ZM494,147v203.2C494,378,469,390.09,469,390.09s-111,71-141.54,87.69S298,459,298,459s1.12-166.49,1.12-198.65S325.28,217,325.28,217l144.79-88.93C497.24,111.4,494,147,494,147Z" transform="translate(0 0.14)"/></svg>