<?xml version="1.0" encoding="utf-8"?>
<!-- Generator: Adobe Illustrator 22.0.1, SVG Export Plug-In . SVG Version: 6.00 Build 0)  -->
<svg version="1.1" id="Layer_1" xmlns="http://www.w3.org/2000/svg" xmlns:xlink="http://www.w3.org/1999/xlink" x="0px" y="0px"
	 viewBox="0 0 512.3 512.3" style="enable-background:new 0 0 512.3 512.3;" xml:space="preserve">
<style type="text/css">
	.st0{fill:#007BFF;}
</style>
<title>reload-colored-2</title>
<path class="st0" d="M479.6,72.2C443.9,61.9,251.9,4.7,251.9,4.7s-35.2-11.1-76.3,11.8S35.7,91.2,35.7,91.2s-32,14-33.7,41.7v244.4
	c0,0,0.1,37.5,38.3,51.6s214.9,74.8,214.9,74.8s27.2,20.8,79.8-12.1s151.2-95.4,151.2-95.4s23.8-20.8,23.8-48.6V106.8
	C510,106.8,515.2,82.7,479.6,72.2z M247,196.1c-9.3-3.4-24-8.4-41.6-14.3l1.4,181.6l-72.4-99.9l-50,46.7L85,142.6
	c-24.1-7.7-40.9-13-40.9-13s-32.9-8.2,1.7-26.8L197,27.4c0,0,19.8-13.1,60.5-1c40.7,12.1,198.3,57.8,198.3,57.8s32.2,9.2,3.3,28.5
	C420.5,138.6,323,193.2,323,193.2S289.4,211.6,247,196.1z M492.1,148v201.6c0,27.6-24.8,39.6-24.8,39.6s-110.1,70.4-140.4,87
	c-30.3,16.6-29.2-18.6-29.2-18.6s1.1-165.2,1.1-197.1s26-43,26-43l143.7-88.2C495.4,112.7,492.1,148,492.1,148z"/>
</svg>
